<?xml version="1.0" encoding="utf-8"?>
<!-- Generator: Adobe Illustrator 24.1.1, SVG Export Plug-In . SVG Version: 6.00 Build 0)  -->
<svg version="1.1" id="Layer_1" xmlns="http://www.w3.org/2000/svg" xmlns:xlink="http://www.w3.org/1999/xlink" x="0px" y="0px"
	 viewBox="0 0 500 500" style="enable-background:new 0 0 500 500;" xml:space="preserve">
<style type="text/css">
	.st0{fill:#FFFFFF;}
	.st1{fill:#EA4335;}
	.st2{fill:#FBBC04;}
	.st3{fill:#34A853;}
	.st4{fill:#188038;}
	.st5{fill:#1967D2;}
	.st6{fill:#4285F4;}
</style>
<g>
	<rect x="118.5" y="118.5" class="st0" width="263.2" height="263.2"/>
	<polygon class="st1" points="381.5,500 500,381.5 381.5,381.5 	"/>
	<rect x="381.5" y="118.5" class="st2" width="118.5" height="263.2"/>
	<rect x="118.5" y="381.5" class="st3" width="263.2" height="118.5"/>
	<path class="st4" d="M0,381.5v78.9C0,482.3,17.7,500,39.5,500h78.9V381.5H0z"/>
	<path class="st5" d="M500,118.5v-79C500,17.7,482.3,0,460.5,0h-78.9v118.5H500z"/>
	<path class="st6" d="M381.5,0H39.5C17.7,0,0,17.7,0,39.5v342.1h118.5V118.5h263.2L381.5,0L381.5,0z"/>
	<path class="st6" d="M172.4,322.6c-9.9-6.6-16.6-16.3-20.4-29.2l22.9-9.4c2.1,7.9,5.7,14,10.8,18.4c5.2,4.3,11.4,6.4,18.7,6.4
		c7.4,0,13.9-2.2,19.2-6.8c5.4-4.6,8.1-10.4,8.1-17.4c0-7.1-2.8-13-8.5-17.6c-5.7-4.5-12.8-6.8-21.3-6.8h-13.2v-22.6h11.8
		c7.3,0,13.5-2,18.5-6c5-3.9,7.5-9.4,7.5-16.2c0-6.2-2.2-11-6.7-14.6s-10.2-5.5-17-5.5c-6.7,0-12,1.8-16,5.4
		c-3.9,3.6-6.9,8.1-8.6,13.2l-22.6-9.4c3-8.5,8.5-16,16.5-22.5c8.1-6.4,18.4-9.8,30.9-9.8c9.3,0,17.6,1.8,24.9,5.4
		c7.3,3.6,13.2,8.6,17.4,14.8c4.2,6.3,6.3,13.5,6.3,21.4c0,8.1-2,14.8-5.9,20.5c-3.9,5.6-8.7,9.9-14.4,12.9v1.4
		c7.3,3,13.7,8,18.4,14.4c4.8,6.4,7.1,14.1,7.1,23c0,9-2.2,16.9-6.8,23.9c-4.5,7-10.8,12.5-18.8,16.5c-8,4-17,6.1-27,6.1
		C192.9,332.5,182.2,329.2,172.4,322.6z M312.6,209.3l-25.1,18.2l-12.5-19l44.9-32.4h17.3v153h-24.6V209.3z"/>
</g>
</svg>
